ffmpeg version 7.0.2-full_build-www.gyan.dev Copyright (c) 2000-2024 the FFmpeg developers
  built with gcc 13.2.0 (Rev5, Built by MSYS2 project)
  configuration: --enable-gpl --enable-version3 --enable-static --disable-w32threads --disable-autodetect --enable-fontconfig --enable-iconv --enable-gnutls --enable-libxml2 --enable-gmp --enable-bzlib --enable-lzma --enable-libsnappy --enable-zlib --enable-librist --enable-libsrt --enable-libssh --enable-libzmq --enable-avisynth --enable-libbluray --enable-libcaca --enable-sdl2 --enable-libaribb24 --enable-libaribcaption --enable-libdav1d --enable-libdavs2 --enable-libuavs3d --enable-libxevd --enable-libzvbi --enable-librav1e --enable-libsvtav1 --enable-libwebp --enable-libx264 --enable-libx265 --enable-libxavs2 --enable-libxeve --enable-libxvid --enable-libaom --enable-libjxl --enable-libopenjpeg --enable-libvpx --enable-mediafoundation --enable-libass --enable-frei0r --enable-libfreetype --enable-libfribidi --enable-libharfbuzz --enable-liblensfun --enable-libvidstab --enable-libvmaf --enable-libzimg --enable-amf --enable-cuda-llvm --enable-cuvid --enable-dxva2 --enable-d3d11va --enable-d3d12va --enable-ffnvcodec --enable-libvpl --enable-nvdec --enable-nvenc --enable-vaapi --enable-libshaderc --enable-vulkan --enable-libplacebo --enable-opencl --enable-libcdio --enable-libgme --enable-libmodplug --enable-libopenmpt --enable-libopencore-amrwb --enable-libmp3lame --enable-libshine --enable-libtheora --enable-libtwolame --enable-libvo-amrwbenc --enable-libcodec2 --enable-libilbc --enable-libgsm --enable-libopencore-amrnb --enable-libopus --enable-libspeex --enable-libvorbis --enable-ladspa --enable-libbs2b --enable-libflite --enable-libmysofa --enable-librubberband --enable-libsoxr --enable-chromaprint
  libavutil      59.  8.100 / 59.  8.100
  libavcodec     61.  3.100 / 61.  3.100
  libavformat    61.  1.100 / 61.  1.100
  libavdevice    61.  1.100 / 61.  1.100
  libavfilter    10.  1.100 / 10.  1.100
  libswscale      8.  1.100 /  8.  1.100
  libswresample   5.  1.100 /  5.  1.100
  libpostproc    58.  1.100 / 58.  1.100
Input #0, lavfi, from 'color=black:s=1920x1080:r=30:d=60':
  Duration: N/A, start: 0.000000, bitrate: N/A
  Stream #0:0: Video: wrapped_avframe, yuv420p, 1920x1080 [SAR 1:1 DAR 16:9], 30 fps, 30 tbr, 30 tbn
Input #1, mov,mp4,m4a,3gp,3g2,mj2, from 'H:\Eigene Dokumente\Flo\sonstiges\CreativeWork\plushie\larry prank.mp4':
  Metadata:
    major_brand     : mp42
    minor_version   : 0
    compatible_brands: isommp42
    creation_time   : 2018-10-01T18:44:00.000000Z
    com.android.version: 8.0.0
  Duration: 00:01:16.67, start: 0.000000, bitrate: 17241 kb/s
  Stream #1:0[0x1](eng): Video: h264 (High) (avc1 / 0x31637661), yuv420p(tv, bt709, progressive), 1920x1080, 16980 kb/s, SAR 1:1 DAR 16:9, 29.95 fps, 30 tbr, 90k tbn (default)
      Metadata:
        creation_time   : 2018-10-01T18:44:00.000000Z
        handler_name    : VideoHandle
        vendor_id       : [0][0][0][0]
  Stream #1:1[0x2](eng): Audio: aac (LC) (mp4a / 0x6134706D), 48000 Hz, stereo, fltp, 256 kb/s (default)
      Metadata:
        creation_time   : 2018-10-01T18:44:01.000000Z
        handler_name    : SoundHandle
        vendor_id       : [0][0][0][0]
Stream mapping:
  Stream #0:0 (wrapped_avframe) -> setpts:default
  Stream #1:0 (h264) -> scale:default
  format:default -> Stream #0:0 (mjpeg)
Press [q] to stop, [?] for help
[swscaler @ 000002115eea9d00] deprecated pixel format used, make sure you did set range correctly
[vost#0:0/mjpeg @ 0000021158037cc0] No information about the input framerate is available. Falling back to a default value of 25fps. Use the -r option if you want a different framerate.
Output #0, image2, to 'preview_frame.jpg':
  Metadata:
    encoder         : Lavf61.1.100
  Stream #0:0: Video: mjpeg, yuvj420p(pc, progressive), 1920x1080 [SAR 1:1 DAR 16:9], q=2-31, 200 kb/s, 25 fps, 25 tbn
      Metadata:
        encoder         : Lavc61.3.100 mjpeg
      Side data:
        cpb: bitrate max/min/avg: 0/0/200000 buffer size: 0 vbv_delay: N/A
[image2 @ 0000021158037640] The specified filename 'preview_frame.jpg' does not contain an image sequence pattern or a pattern is invalid.
[image2 @ 0000021158037640] Use a pattern such as %03d for an image sequence or use the -update option (with -frames:v 1 if needed) to write a single image.
[out#0/image2 @ 0000021158037540] video:59KiB audio:0KiB subtitle:0KiB other streams:0KiB global headers:0KiB muxing overhead: unknown
frame=    1 fps=0.0 q=5.2 Lsize=N/A time=00:00:00.04 bitrate=N/A speed=0.634x    
